<mxfile host="65bd71144e">
    <diagram id="HkL9tgy4Xts6TLIsnwzO" name="Page-1">
        <mxGraphModel dx="2973" dy="1826" grid="1" gridSize="10" guides="1" tooltips="1" connect="1" arrows="1" fold="1" page="1" pageScale="1" pageWidth="827" pageHeight="1169" math="0" shadow="0">
            <root>
                <mxCell id="0"/>
                <mxCell id="1" parent="0"/>
                <mxCell id="3" value="" style="ellipse;shape=cloud;whiteSpace=wrap;html=1;fillColor=#d5e8d4;strokeColor=#006600;fontColor=#006600;strokeWidth=8;" parent="1" vertex="1">
                    <mxGeometry x="2800" y="70" width="718" height="647.5" as="geometry"/>
                </mxCell>
                <mxCell id="4" value="Zone" style="text;html=1;align=center;verticalAlign=middle;resizable=0;points=[];autosize=1;strokeColor=none;fillColor=#d5e8d4;fontSize=40;fontColor=#006600;strokeWidth=8;" parent="1" vertex="1">
                    <mxGeometry x="3118" y="380" width="110" height="50" as="geometry"/>
                </mxCell>
                <mxCell id="5" value="Compagnie" style="text;html=1;align=center;verticalAlign=middle;resizable=0;points=[];autosize=1;strokeColor=none;fillColor=#d5e8d4;fontSize=40;fontColor=#006600;strokeWidth=8;" parent="1" vertex="1">
                    <mxGeometry x="3090" y="562.5" width="220" height="50" as="geometry"/>
                </mxCell>
                <mxCell id="6" value="Effet" style="text;html=1;align=center;verticalAlign=middle;resizable=0;points=[];autosize=1;strokeColor=none;fillColor=#d5e8d4;fontSize=40;fontColor=#006600;strokeWidth=8;" parent="1" vertex="1">
                    <mxGeometry x="3250" y="290" width="100" height="50" as="geometry"/>
                </mxCell>
                <mxCell id="7" value="Cause" style="text;html=1;align=center;verticalAlign=middle;resizable=0;points=[];autosize=1;strokeColor=none;fillColor=#d5e8d4;fontSize=40;fontColor=#006600;strokeWidth=8;" parent="1" vertex="1">
                    <mxGeometry x="2940" y="457.5" width="130" height="50" as="geometry"/>
                </mxCell>
                <mxCell id="8" value="Type" style="text;html=1;align=center;verticalAlign=middle;resizable=0;points=[];autosize=1;strokeColor=none;fillColor=#d5e8d4;fontSize=40;fontColor=#006600;strokeWidth=8;" parent="1" vertex="1">
                    <mxGeometry x="3260" y="457.5" width="100" height="50" as="geometry"/>
                </mxCell>
                <mxCell id="10" value="Contexte" style="text;html=1;align=center;verticalAlign=middle;resizable=0;points=[];autosize=1;strokeColor=none;fillColor=#d5e8d4;fontSize=40;fontColor=#006600;strokeWidth=8;" parent="1" vertex="1">
                    <mxGeometry x="2920" y="290" width="180" height="50" as="geometry"/>
                </mxCell>
                <mxCell id="12" value="Système" style="text;html=1;align=center;verticalAlign=middle;resizable=0;points=[];autosize=1;strokeColor=none;fillColor=#d5e8d4;fontSize=40;fontColor=#006600;strokeWidth=8;" parent="1" vertex="1">
                    <mxGeometry x="3058" y="210" width="170" height="50" as="geometry"/>
                </mxCell>
                <mxCell id="35" style="edgeStyle=orthogonalEdgeStyle;html=1;entryX=0;entryY=0.5;entryDx=0;entryDy=0;fontSize=71;exitX=0.5;exitY=0;exitDx=0;exitDy=0;curved=1;strokeWidth=10;" parent="1" source="20" target="22" edge="1">
                    <mxGeometry relative="1" as="geometry"/>
                </mxCell>
                <mxCell id="36" style="edgeStyle=orthogonalEdgeStyle;curved=1;html=1;entryX=0;entryY=0.5;entryDx=0;entryDy=0;fontSize=71;strokeWidth=10;exitX=0.5;exitY=1;exitDx=0;exitDy=0;" parent="1" source="20" target="47" edge="1">
                    <mxGeometry relative="1" as="geometry">
                        <mxPoint x="-40" y="615" as="targetPoint"/>
                    </mxGeometry>
                </mxCell>
                <mxCell id="20" value="cve" style="rounded=1;whiteSpace=wrap;html=1;fontSize=71;fillColor=#B3B3B3;strokeColor=#1A1A1A;fontColor=#1A1A1A;strokeWidth=6;" parent="1" vertex="1">
                    <mxGeometry x="-380" y="390" width="220" height="100" as="geometry"/>
                </mxCell>
                <mxCell id="53" style="edgeStyle=orthogonalEdgeStyle;curved=1;html=1;entryX=0;entryY=0.5;entryDx=0;entryDy=0;fontSize=40;strokeWidth=10;" parent="1" source="22" target="48" edge="1">
                    <mxGeometry relative="1" as="geometry"/>
                </mxCell>
                <mxCell id="22" value="Extraction du desctiptif" style="rounded=1;whiteSpace=wrap;html=1;fontSize=40;fillColor=#dae8fc;strokeColor=#0000FF;fontColor=#0000FF;strokeWidth=6;" parent="1" vertex="1">
                    <mxGeometry x="-50" y="160" width="310" height="140" as="geometry"/>
                </mxCell>
                <mxCell id="57" style="edgeStyle=orthogonalEdgeStyle;curved=1;html=1;exitX=0.875;exitY=0.5;exitDx=0;exitDy=0;exitPerimeter=0;fontSize=40;strokeWidth=10;" parent="1" source="46" target="55" edge="1">
                    <mxGeometry relative="1" as="geometry"/>
                </mxCell>
                <mxCell id="46" value="" style="ellipse;shape=cloud;whiteSpace=wrap;html=1;fillColor=#d5e8d4;strokeColor=#006600;fontColor=#006600;strokeWidth=6;" parent="1" vertex="1">
                    <mxGeometry x="1160" y="350" width="580" height="495" as="geometry"/>
                </mxCell>
                <mxCell id="28" value="Mailing List" style="text;html=1;align=center;verticalAlign=middle;resizable=0;points=[];autosize=1;strokeColor=none;fillColor=#d5e8d4;fontSize=40;fontColor=#006600;" parent="1" vertex="1">
                    <mxGeometry x="1440" y="542.5" width="220" height="50" as="geometry"/>
                </mxCell>
                <mxCell id="29" value="Forum" style="text;html=1;align=center;verticalAlign=middle;resizable=0;points=[];autosize=1;strokeColor=none;fillColor=#d5e8d4;fontSize=40;fontColor=#006600;" parent="1" vertex="1">
                    <mxGeometry x="1241" y="677.5" width="130" height="50" as="geometry"/>
                </mxCell>
                <mxCell id="30" value="Catalogue" style="text;html=1;align=center;verticalAlign=middle;resizable=0;points=[];autosize=1;strokeColor=none;fillColor=#d5e8d4;fontSize=40;fontColor=#006600;" parent="1" vertex="1">
                    <mxGeometry x="1210" y="542.5" width="200" height="50" as="geometry"/>
                </mxCell>
                <mxCell id="31" value="Patch" style="text;html=1;align=center;verticalAlign=middle;resizable=0;points=[];autosize=1;strokeColor=none;fillColor=#d5e8d4;fontSize=40;fontColor=#006600;" parent="1" vertex="1">
                    <mxGeometry x="1420" y="742.5" width="120" height="50" as="geometry"/>
                </mxCell>
                <mxCell id="32" value="Descriptif détaillé" style="text;html=1;align=center;verticalAlign=middle;resizable=0;points=[];autosize=1;strokeColor=none;fillColor=#d5e8d4;fontSize=40;fontColor=#006600;" parent="1" vertex="1">
                    <mxGeometry x="1380" y="637.5" width="320" height="50" as="geometry"/>
                </mxCell>
                <mxCell id="33" value="Proof of Concept" style="text;html=1;align=center;verticalAlign=middle;resizable=0;points=[];autosize=1;strokeColor=none;fillColor=#d5e8d4;fontSize=40;fontColor=#006600;" parent="1" vertex="1">
                    <mxGeometry x="1320" y="462.5" width="320" height="50" as="geometry"/>
                </mxCell>
                <mxCell id="52" style="edgeStyle=orthogonalEdgeStyle;curved=1;html=1;entryX=0;entryY=0.5;entryDx=0;entryDy=0;fontSize=40;strokeWidth=10;" parent="1" source="47" target="49" edge="1">
                    <mxGeometry relative="1" as="geometry"/>
                </mxCell>
                <mxCell id="47" value="Extraction de la référence" style="rounded=1;whiteSpace=wrap;html=1;fontSize=40;fillColor=#dae8fc;strokeColor=#0000FF;fontColor=#0000FF;strokeWidth=6;" parent="1" vertex="1">
                    <mxGeometry x="-40" y="530" width="310" height="135" as="geometry"/>
                </mxCell>
                <mxCell id="48" value="Analyse du descriptif" style="rounded=1;whiteSpace=wrap;html=1;fontSize=40;fillColor=#dae8fc;strokeColor=#0000FF;strokeWidth=6;fontColor=#0000FF;" parent="1" vertex="1">
                    <mxGeometry x="2000" y="160" width="310" height="150" as="geometry"/>
                </mxCell>
                <mxCell id="56" style="edgeStyle=orthogonalEdgeStyle;curved=1;html=1;exitX=1;exitY=0.5;exitDx=0;exitDy=0;entryX=-0.007;entryY=1.09;entryDx=0;entryDy=0;entryPerimeter=0;fontSize=40;strokeWidth=10;" parent="1" source="49" target="30" edge="1">
                    <mxGeometry relative="1" as="geometry"/>
                </mxCell>
                <mxCell id="49" value="Identification du type de la référence" style="rounded=1;whiteSpace=wrap;html=1;fontSize=40;fillColor=#dae8fc;strokeColor=#0000FF;fontColor=#0000FF;strokeWidth=6;" parent="1" vertex="1">
                    <mxGeometry x="500" y="515" width="340" height="165" as="geometry"/>
                </mxCell>
                <mxCell id="55" value="Analyse de la référence" style="rounded=1;whiteSpace=wrap;html=1;fontSize=40;fillColor=#dae8fc;strokeColor=#0000FF;strokeWidth=6;fontColor=#0000FF;" parent="1" vertex="1">
                    <mxGeometry x="2000" y="523.75" width="310" height="147.5" as="geometry"/>
                </mxCell>
                <mxCell id="60" value="" style="shape=flexArrow;endArrow=classic;html=1;fontSize=40;fontColor=#1A1A1A;strokeWidth=5;curved=1;endWidth=74;endSize=50.24;width=70;fillColor=#FFCCCC;strokeColor=#FF0000;" parent="1" edge="1">
                    <mxGeometry width="50" height="50" relative="1" as="geometry">
                        <mxPoint x="2430" y="420" as="sourcePoint"/>
                        <mxPoint x="2730" y="420" as="targetPoint"/>
                    </mxGeometry>
                </mxCell>
            </root>
        </mxGraphModel>
    </diagram>
</mxfile>